<svg xmlns="http://www.w3.org/2000/svg" width="430" height="430" style="width:100%;height:100%;transform:translate3d(0,0,0);content-visibility:visible" viewBox="0 0 430 430"><defs><clipPath id="a"><path d="M0 0h430v430H0z"/></clipPath><clipPath id="c"><path d="M0 0h430v430H0z"/></clipPath><clipPath id="b"><path d="M0 0h430v430H0z"/></clipPath></defs><g clip-path="url(#a)"><g clip-path="url(#b)" style="display:none"><g fill="none" style="display:none"><path class="secondary"/><path class="secondary"/><path class="secondary"/><path class="primary"/><path class="primary"/><path class="primary"/></g><g style="display:none"><path class="secondary"/><path fill="none" class="secondary"/></g><g style="display:none"><path fill="none" class="secondary"/><path class="secondary"/></g><path fill="none" class="primary" style="display:none"/></g><g clip-path="url(#c)" style="display:block"><g fill="none" stroke-linecap="round" stroke-linejoin="round" stroke-width="18.9" style="display:block"><path stroke="#FFF" d="m379.624 319.398 22.18-.199v-106.74l-53.71-93.4h-66.38v200.14l23.19.199" class="secondary"/><path stroke="#FFF" d="M362.782 144.602h-48.379v66.577h87.403M281.714 264.83h120.092" class="secondary"/><path stroke="#000" d="m125.594 319.398 156.12-.199V79.029H28.194v240.17l20.69.199M31.659 119.054h245.998M31.659 264.83h245.998" class="primary"/></g><g style="display:block"><path fill="#FFF" d="M349.933 319.113a8.172 8.172 0 1 1-16.345 0 8.172 8.172 0 0 1 16.345 0z" class="secondary"/><path fill="none" stroke="#FFF" stroke-linecap="round" stroke-linejoin="round" stroke-width="18.9" d="M373.619 319.113c0 17.595-14.263 31.858-31.858 31.858s-31.858-14.263-31.858-31.858 14.263-31.858 31.858-31.858 31.858 14.263 31.858 31.858z" class="secondary"/></g><g style="display:block"><path fill="none" stroke="#FFF" stroke-linecap="round" stroke-linejoin="round" stroke-width="18.9" d="M118.597 319.113c0 17.595-14.263 31.858-31.858 31.858s-31.858-14.263-31.858-31.858 14.263-31.858 31.858-31.858 31.858 14.263 31.858 31.858z" class="secondary"/><path fill="#FFF" d="M94.911 319.113a8.172 8.172 0 1 1-16.345 0 8.172 8.172 0 0 1 16.345 0z" class="secondary"/></g><path fill="none" stroke="#000" stroke-linecap="round" stroke-linejoin="round" stroke-width="18.9" d="M0 0" class="primary" style="display:block" transform="translate(233 179)"/></g></g></svg>